<svg xmlns="http://www.w3.org/2000/svg" xmlns:xlink="http://www.w3.org/1999/xlink" width="380" height="380" viewBox="0 0 380 380"><defs><style>.a{fill:#fff;}.b,.f{fill:#054b81;}.b,.c{fill-rule:evenodd;}.c,.e{fill:#00a0e3;}.d{fill:#fefefe;}.g{filter:url(#a);}</style><filter id="a" x="0" y="0" width="380" height="380" filterUnits="userSpaceOnUse"><feOffset dy="3" input="SourceAlpha"/><feGaussianBlur stdDeviation="22.5" result="b"/><feFlood flood-opacity="0.149"/><feComposite operator="in" in2="b"/><feComposite in="SourceGraphic"/></filter></defs><g transform="translate(1403.177 -1115.288)"><g class="g" transform="matrix(1, 0, 0, 1, -1403.18, 1115.29)"><path class="a" d="M122.5,0A122.5,122.5,0,1,1,0,122.5,122.5,122.5,0,0,1,122.5,0Z" transform="translate(67.5 64.5)"/></g><g transform="translate(-1326.541 1188.093)"><g transform="translate(12.405 12.42)"><path class="b" d="M-1263.676,1293.821c0,16.034,2.658,27.521,14.122,38.463,36.838,35.158,96.369-4.339,76.613-52.71-4.286-10.5-13.291-19.364-23.525-24.279-23.05-11.075-51.045-1.1-62.183,21.242-2.1,4.22-5.027,11.425-5.027,17.284m-35.854-8.764c.3-3.635,2.787-12.238,3.876-15.247a83.078,83.078,0,0,1,45.5-48.518c30.2-13.3,68.191-7.371,89.865,14.558,3.376,3.415,6.281,5.935,9.3,9.817,7.938,10.191,17.181,26.75,17.181,40.186-12.729,1.059-11.859,23.713,0,24.7,0,9.655-5.947,22.8-9.812,29.229-25.919,43.127-78.588,54.913-118,29.265-19.169-12.476-36.077-35.631-37.913-57.7,4.922-2.6,9.561-5.152,9.561-12.749,0-8.2-3.735-10.463-9.561-13.544" transform="translate(1316.98 -1197.345)"/><path class="c" d="M-1302.944,1287.7c2.018.969,10.356,1.669,10.356,11.154a9.892,9.892,0,0,1-9.56,9.561c0,21.016,15.277,43.625,26.483,53.991,6.311,5.839,16.894,12.877,24.612,16.022,38.225,15.573,80.7,4.953,104.047-26.416,8.243-11.077,17.421-28.608,17.755-43.6-13.078-.291-13.813-19.611,0-19.918-.31-13.9-8.947-31.838-17.073-42.684-23.922-31.93-66.822-43.443-104.277-27.672-8.939,3.764-14.571,7.684-21.516,13.538a84.237,84.237,0,0,0-26.754,39.38Zm3.982-2.39c.3-3.635,2.787-12.238,3.877-15.247a83.075,83.075,0,0,1,45.5-48.518c30.205-13.3,68.192-7.371,89.865,14.558,3.376,3.414,6.28,5.935,9.3,9.817,7.939,10.191,17.181,26.75,17.181,40.186-12.729,1.059-11.859,23.713,0,24.7,0,9.655-5.947,22.8-9.812,29.229-25.919,43.126-78.589,54.913-118,29.265-19.169-12.476-36.079-35.632-37.915-57.7,4.922-2.6,9.561-5.152,9.561-12.749,0-8.2-3.735-10.463-9.561-13.544" transform="translate(1316.707 -1197.596)"/><path class="c" d="M-1266.054,1291.12c0,16.035,2.657,27.522,14.122,38.463,36.837,35.16,96.368-4.338,76.613-52.709-4.287-10.5-13.293-19.363-23.526-24.279-23.05-11.075-51.043-1.1-62.182,21.242-2.1,4.22-5.027,11.425-5.027,17.282m3.188,3.985a43.282,43.282,0,0,1,12.545-29.683c11.324-11.2,19.661-13.342,35.26-13.342,18.052,0,39.837,20.08,39.837,42.227,0,39.345-45.5,60.516-75.5,30.881-6.407-6.328-12.143-17.681-12.143-30.084" transform="translate(1319.654 -1194.646)"/><path class="b" d="M-1221.161,1200.712c-4.629,0-8.834-3.729-15.639,1.324-4.093,3.04-1.563,1.462-7.628,1.454-10.5-.012-6.244,5.819-14.8,6.418-10.195.714-7.725,6.7-12.689,8.475-3.655,1.307-4.324.14-7.412,3.167-4.621,4.531-1.483,6.161-7,8.522a11.889,11.889,0,0,0-3.709,1.935c-2.3,1.669-3.274,3.327-4.128,6.454-2.371,8.673-6.232,3.331-8.964,12.2-1.356,4.407.924,4.772-2.465,8.116-1.992,1.966-3.746,3.4-4.3,6.283-.714,3.731.84,6.75-1.038,9.545-1.566,2.331-3.349,2.064-3.349,9.347,0,3.665,1.592,4.13.926,6.6-1.062,3.938-2.337.851-2.337,8.923a11.514,11.514,0,0,0,2.116,6.35c0,4.629-3.729,8.833,1.324,15.639,3.039,4.092,1.462,1.563,1.455,7.626,0,3.651.847,5.973,2.67,7.969,3.016,3.3,3.368,1.393,3.748,6.832.373,5.319,2.3,7.5,5.782,9.738,5.657,3.633,1.006,5.412,5.86,10.364,4.517,4.606,5.986,1.487,8.588,6.932a24.626,24.626,0,0,0,1.884,3.758,15.119,15.119,0,0,0,6.424,4.159c5.324,1.577,3.313.328,6.021,4.561,4.224,6.613,10.484,2.977,14.309,6.854,8.449,8.563,10.745,1.922,15.827,5.336,2.334,1.566,2.065,3.349,9.348,3.349,3.478,0,4.514-1.628,6.707-1.037,3.619.975.164,2.447,9.518,2.447,3.3,0,3.817-1.95,6.681-2.339,2.418-.327,7.222,4.379,14.6-1.1,6.108-4.537,8.323,1.628,15.528-4.19,3.837-3.1.02-3.079,6.867-3.716,10.016-.932,8.218-6.69,12.64-8.524,2.752-1.14,4.814-.745,7.484-3.1,2.786-2.456,2.423-4.074,4.084-6.5.748-1.094-.16-.174,1.021-1.1,1.86-1.451,7.64-2.146,9.753-9.291,1.491-5.038.337-3.37,4.458-6.125,7.364-4.925,2.768-10.071,6.958-14.206,8.565-8.449,1.922-10.745,5.336-15.826,1.567-2.333,3.349-2.063,3.349-9.349,0-3.973-1.914-4.4-.85-7.159,1.111-2.885,2.26-1.821,2.26-8.361,0-4.449-1.463-4.278-2.219-6.938-.84-2.958,4.5-7.34-1.222-15.05-3.064-4.126-1.445-1.552-1.448-7.632,0-9.945-5.854-6.634-6.424-14.795-.713-10.178-6.555-7.616-8.466-12.7-4.47-11.878-2.55-6.595-9.685-11.478-1.092-.747-.174.155-1.1-1.02a10.708,10.708,0,0,1-.983-1.839,24.527,24.527,0,0,0-1.885-3.758,15.1,15.1,0,0,0-6.423-4.159c-5.324-1.577-3.313-.327-6.02-4.561-4.224-6.613-10.485-2.976-14.31-6.853-8.449-8.564-10.745-1.922-15.827-5.337-2.332-1.566-2.064-3.348-9.348-3.348-3.665,0-4.132,1.591-6.6.925-3.938-1.061-.851-2.337-8.923-2.337a11.513,11.513,0,0,0-6.349,2.117m-1.41,4.937c2.919,0,5.276-2.822,8.464-2.822,4.607,0,4.571,2.822,8.466,2.822,8.609,0,3.364-4.783,14.116,2.127,3.775,2.426,3.426.694,7.751.694,5.543,0,6.024,4.359,10.117,6.109,2.656,1.134,3.822.511,6.5,1.256,2.591.718,3.342,2,4.316,3.443,4.518,6.71,4.729,3.044,10.12,6.106,3.867,2.2,2.262,6.916,6.333,9.187,4.529,2.526,6.285.849,7.932,8.294,1.494,6.752,4.77,4.57,7.334,8.186,3.276,4.622-.467,8.146,4.1,12.12,5.478,4.761,3.2,4.72,3.2,10.906,0,5.722,4.234,4.954,4.234,9.876,0,5.175-1.411,4.319-1.411,8.465,0,2.434,2.822,4.335,2.822,7.761,0,3.745-2.822,4.719-2.822,8.465,0,5.712,1.411,3.389,1.411,7.053,0,3.643-2.27,4.916-3.639,6.953-2.242,3.337-.6,4.692-.6,8.567,0,4.742-5.129,5.995-6.487,9.739-2.234,6.167,1.78,5.876-4.8,10.719-6.206,4.57-2.6,5.247-6,10.224-2.708,3.96-6.746,1.69-9.039,6.481-2.878,6.015-1.628,5.829-8.655,7.569-5.584,1.383-4.3,5-8.135,7.385-5.3,3.3-7.473-.935-11.89,4.335-4.065,4.85-5.214,2.8-11.3,2.8-4.952,0-4.219,4.234-9.17,4.234-5.175,0-4.32-1.411-8.465-1.411-2.434,0-4.335,2.822-7.76,2.822-4.608,0-4.57-2.822-8.466-2.822-8.375,0-3.51,4.729-14.113-2.122-4.142-2.677-3.939-.7-8.461-.7-4.444,0-6.04-4.883-9.827-6.4-3.658-1.464-6.847.636-10.131-3.978-5.838-8.2-5.343-3.05-10.827-6.809-3.675-2.518-1.926-6.839-6.335-9.184-6.012-3.2-5.718-.97-7.611-8.614-1.493-6.03-5.316-4.366-7.49-8.029-2.786-4.7.585-7.845-3.834-11.687-5.476-4.76-3.2-4.72-3.2-10.907,0-5.722-4.232-4.953-4.232-9.875,0-5.175,1.41-4.319,1.41-8.465,0-2.434-2.821-4.334-2.821-7.761,0-4.607,2.821-4.569,2.821-8.464,0-8.605-4.78-3.367,2.122-14.112,2.674-4.163.7-3.93.7-8.463,0-4.557,4.93-5.885,6.245-9.98,1.81-5.635-.994-6.792,5-10.52,6.081-3.782,2.89-5.835,5.94-10.285,2.509-3.66,7.058-1.983,9.146-6.375,2.852-6,1.659-5.853,8.654-7.57,5.674-1.392,4.218-5.219,8.033-7.486,4.841-2.875,7.256.849,11.892-4.333,4.2-4.69,5.435-2.707,11.4-2.707,3.717,0,4.926-4.232,9.17-4.232,4.992,0,4.51,1.41,7.761,1.41" transform="translate(1315.689 -1198.596)"/><path class="c" d="M-1300.014,1287.4a4.179,4.179,0,0,1,4.178,4.178,4.178,4.178,0,0,1-4.178,4.178,4.179,4.179,0,0,1-4.178-4.178,4.179,4.179,0,0,1,4.178-4.178" transform="translate(1316.607 -1191.503)"/><path class="c" d="M-1144.249,1287.4a4.18,4.18,0,0,1,4.179,4.178,4.179,4.179,0,0,1-4.179,4.178,4.178,4.178,0,0,1-4.178-4.178,4.179,4.179,0,0,1,4.178-4.178" transform="translate(1329.05 -1191.503)"/><path class="d" d="M-1149.445,1264.972l-7.258,10.664,6.684-3.423c.6-.309.927-.573.969-.793a2,2,0,0,0-.323-1.087l-.434-.846,2.118-1.085,3.369,6.576-2.118,1.086-.272-.532c-.269-.523-.507-.823-.717-.9s-.608.03-1.188.328l-11.564,5.924-2.629-5.13,7.739-11.305-7.315,3.747c-.579.3-.9.556-.963.774a1.824,1.824,0,0,0,.308,1.115l.34.665-2.118,1.085-3.38-6.6,2.119-1.084.375.731c.27.528.516.833.734.914s.617-.025,1.192-.319l8.162-4.182c.569-.291.883-.547.948-.767a1.84,1.84,0,0,0-.314-1.138l-.376-.732,2.118-1.085Zm-8.278-13.589-4.321,4.531-1.924-1.834a10.856,10.856,0,0,0,.918-1.755,3.408,3.408,0,0,0,.25-1.28,2.669,2.669,0,0,0-.374-1.295,8.778,8.778,0,0,0-1.467-1.679l-.363-.345-1.559-1.486-3.18,3.335.469.446a1.983,1.983,0,0,0,1.537.705,3.136,3.136,0,0,0,1.683-1.1l.1-.106,1.521,1.451-5.288,5.547-1.522-1.452a4.322,4.322,0,0,0,1.24-1.966,1.908,1.908,0,0,0-.776-1.466l-.486-.465-3.613,3.788,2.155,2.054a9.115,9.115,0,0,0,1.868,1.494,1.908,1.908,0,0,0,1.22.184,4.971,4.971,0,0,0,1.459-.635,11.283,11.283,0,0,0,1.718-1.366l1.994,1.9-4.787,5.021-12.833-12.237,1.641-1.722.611.582a2.059,2.059,0,0,0,.93.615c.216.028.542-.187.968-.634l.086-.091,6.329-6.637c.449-.471.665-.819.651-1.04s-.237-.539-.666-.947l-.595-.568,1.642-1.721Zm-49.062-18.405a8.429,8.429,0,0,1,4.282-5.587,10.227,10.227,0,0,1,7.543-.323,10.155,10.155,0,0,1,6.218,4.232,8.437,8.437,0,0,1,.7,7,8.384,8.384,0,0,1-4.277,5.573,10.279,10.279,0,0,1-7.552.31,10.14,10.14,0,0,1-6.207-4.227,8.417,8.417,0,0,1-.707-6.98m11.135-3.45a2.607,2.607,0,0,0-2.795.765,11.06,11.06,0,0,0-2.062,4.417,11.409,11.409,0,0,0-.591,4.909,2.575,2.575,0,0,0,1.954,2.118,2.594,2.594,0,0,0,2.8-.759,11.1,11.1,0,0,0,2.059-4.422,11.431,11.431,0,0,0,.589-4.9,2.578,2.578,0,0,0-1.952-2.13m-27.143-4.438.18,2.373-.279.021a1.445,1.445,0,0,0-.969.313,1.925,1.925,0,0,0-.143,1.2l.23,3.023,4.646-.353-.23-3.021a1.885,1.885,0,0,0-.327-1.169,1.48,1.48,0,0,0-1.013-.161l-.267.02-.18-2.372,9.29-.708.18,2.374-.849.064a1.857,1.857,0,0,0-1.107.31q-.231.245-.158,1.218l.7,9.149c.049.655.163,1.047.341,1.188a1.818,1.818,0,0,0,1.143.148l.849-.065.18,2.373-9.291.706-.18-2.371.266-.021a1.437,1.437,0,0,0,.968-.322,1.862,1.862,0,0,0,.155-1.212l-.286-3.755-4.645.353.285,3.755a1.912,1.912,0,0,0,.328,1.176,1.417,1.417,0,0,0,1,.17l.279-.02.18,2.372-9.29.707-.18-2.373.841-.063a2.075,2.075,0,0,0,1.1-.285c.168-.151.229-.569.176-1.261l-.7-9.147c-.051-.658-.164-1.051-.337-1.185a1.905,1.905,0,0,0-1.153-.134l-.842.064-.179-2.373Zm-12,12.272a6.9,6.9,0,0,1,.2,5.613,8.37,8.37,0,0,1-4.5,4.026q-3.972,1.795-7.055.66a8.826,8.826,0,0,1-4.847-5.038,8.773,8.773,0,0,1-.457-6.908,8.762,8.762,0,0,1,4.912-4.891,10.63,10.63,0,0,1,2.432-.782,8.685,8.685,0,0,1,2.41-.12l.006-1.018,2.484-1.124,2.85,6.3-2.739,1.239a7.774,7.774,0,0,0-2.674-2.649,2.989,2.989,0,0,0-2.667.005,2.726,2.726,0,0,0-1.733,2.429,10.674,10.674,0,0,0,1.248,4.717,10.772,10.772,0,0,0,2.787,4.15,2.847,2.847,0,0,0,3.082.261,3.555,3.555,0,0,0,2.035-2.258,5.27,5.27,0,0,0-.241-3.5Zm-26.264,2.152,4.322,4.531-1.925,1.836a10.606,10.606,0,0,0-1.709-1,3.369,3.369,0,0,0-1.265-.311,2.656,2.656,0,0,0-1.312.311,8.684,8.684,0,0,0-1.745,1.386l-.363.346-1.559,1.486,3.179,3.336.469-.446a1.983,1.983,0,0,0,.778-1.5,3.13,3.13,0,0,0-1.02-1.734l-.1-.107,1.522-1.45,5.288,5.546-1.523,1.451a4.316,4.316,0,0,0-1.905-1.333,1.907,1.907,0,0,0-1.5.706l-.486.464,3.611,3.788,2.154-2.053a9.156,9.156,0,0,0,1.581-1.8,1.91,1.91,0,0,0,.242-1.211,5.016,5.016,0,0,0-.564-1.486,11.348,11.348,0,0,0-1.283-1.782l1.994-1.9,4.788,5.021-12.835,12.234-1.643-1.72.611-.583a2.051,2.051,0,0,0,.659-.9c.038-.214-.161-.551-.588-1l-.085-.091-6.329-6.638c-.448-.471-.786-.7-1.008-.7s-.547.212-.977.621l-.595.567-1.641-1.723Zm-21.823,27.082,2.116,1.084-.126.25a1.436,1.436,0,0,0-.24.989c.07.209.388.461.952.75l2.7,1.382,2.124-4.147-2.7-1.381a1.881,1.881,0,0,0-1.166-.332c-.214.069-.437.331-.666.78l-.123.237-2.117-1.084,4.248-8.292,2.118,1.085-.389.757a1.85,1.85,0,0,0-.313,1.107q.087.325.956.77l8.166,4.184c.582.3.977.407,1.191.328s.456-.377.723-.9l.388-.758,2.118,1.084-4.248,8.294-2.118-1.086.122-.236a1.441,1.441,0,0,0,.232-.994c-.071-.218-.385-.473-.954-.764l-3.351-1.718-2.123,4.147,3.351,1.717a1.91,1.91,0,0,0,1.174.335c.218-.067.441-.323.668-.764l.127-.25,2.119,1.085-4.249,8.291-2.117-1.083.384-.752a2.067,2.067,0,0,0,.329-1.084c-.041-.221-.367-.491-.984-.808l-8.166-4.183c-.586-.3-.981-.408-1.186-.331s-.444.382-.716.913l-.384.751-2.118-1.086Z" transform="translate(1317.97 -1196.546)"/><path class="d" d="M-1164.4,1333.783l-1.905-1.427.454-.6a3.653,3.653,0,0,0,.619-1,.4.4,0,0,0-.191-.407,1.9,1.9,0,0,0-.318-.2,3.2,3.2,0,0,0-.328-.147l-1.8-.6-2.716,3.62.973,1.382a4.46,4.46,0,0,0,.351.493,1.656,1.656,0,0,0,.273.268c.121.09.271.078.461-.036a2.483,2.483,0,0,0,.616-.622l.5-.665,1.9,1.428-4.508,6.012-1.9-1.427.373-.5a1.508,1.508,0,0,0,.32-1.1,3.294,3.294,0,0,0-.608-1.4l-7.505-11.155,3.647-4.861,12.479,4.44a3.643,3.643,0,0,0,1.653.321,1.714,1.714,0,0,0,.849-.692l.529-.705,1.9,1.428Zm-5.871-5.195-4.987-1.831,3.21,4.2Zm-14.591,11.308.75-.531a2.844,2.844,0,0,0,1.27-1.58,2.244,2.244,0,0,0-.506-1.775,2.158,2.158,0,0,0-1.439-1.041,2.848,2.848,0,0,0-1.844.689l-.822.582Zm4.359,6.15.879-.622a3.128,3.128,0,0,0,1.424-1.788,2.829,2.829,0,0,0-.673-2.091,2.557,2.557,0,0,0-1.709-1.2,3.182,3.182,0,0,0-2.145.743l-.861.61Zm-4.952,6.4-1.376-1.942.688-.488a2.043,2.043,0,0,0,.782-.795c.068-.207-.078-.564-.434-1.068l-.072-.1-5.305-7.485c-.377-.532-.677-.811-.9-.84a1.86,1.86,0,0,0-1.056.473l-.671.476-1.377-1.942,8.256-5.85a9.385,9.385,0,0,1,4.489-2.011,3.27,3.27,0,0,1,2.986,1.557,3.51,3.51,0,0,1,.664,2.482,5.648,5.648,0,0,1-1.2,2.762,6.552,6.552,0,0,1,3.541-.637,3.676,3.676,0,0,1,2.462,1.626,3.842,3.842,0,0,1,.644,3.883q-.779,1.864-4.085,4.205Zm-22.183-.126a8.431,8.431,0,0,1,.082-7.04,10.223,10.223,0,0,1,5.846-4.776,10.156,10.156,0,0,1,7.514-.336,8.443,8.443,0,0,1,4.756,5.188,8.382,8.382,0,0,1-.088,7.023,10.274,10.274,0,0,1-5.862,4.772,10.14,10.14,0,0,1-7.5.333,8.419,8.419,0,0,1-4.747-5.164m6.85-9.433a2.605,2.605,0,0,0-1.781,2.285,11.083,11.083,0,0,0,.995,4.773,11.4,11.4,0,0,0,2.468,4.286,2.577,2.577,0,0,0,2.833.525,2.6,2.6,0,0,0,1.784-2.284,11.11,11.11,0,0,0-1-4.775,11.4,11.4,0,0,0-2.461-4.273,2.575,2.575,0,0,0-2.838-.537m-17.991,16.063,1.323-.047a2.782,2.782,0,0,0,2.567-1.46,9.687,9.687,0,0,0,.632-4.612,9.746,9.746,0,0,0-.955-4.562,2.793,2.793,0,0,0-2.664-1.281l-1.322.047Zm.817-14.387q5.038-.18,7.548,1.8t2.664,6.234q.151,4.268-2.221,6.423t-7.4,2.337l-9.131.323-.083-2.379.842-.029a2.052,2.052,0,0,0,1.09-.235c.171-.135.245-.514.224-1.131l0-.125-.323-9.165c-.023-.651-.121-1.053-.288-1.2a1.862,1.862,0,0,0-1.144-.185l-.822.029-.084-2.378Zm-20.968,4.039,1.42.394a3.61,3.61,0,0,0,2.232.1,1.983,1.983,0,0,0,1.051-1.429,2.3,2.3,0,0,0-.08-1.88,3.116,3.116,0,0,0-1.833-1.042l-1.6-.444Zm-6.925,4.346,2.455-8.841c.175-.631.2-1.04.085-1.228a1.868,1.868,0,0,0-1.037-.522l-.813-.226.634-2.285,11.15,3.095a8.131,8.131,0,0,1,4.129,2.226,3.561,3.561,0,0,1,.614,3.436,3.307,3.307,0,0,1-1.53,2.049,4.941,4.941,0,0,1-2.884.572,3.224,3.224,0,0,1,1.958,1.626q.361.972-.444,3.859a3.585,3.585,0,0,0-.19,1.247.522.522,0,0,0,.4.473.55.55,0,0,0,.6-.279,3.894,3.894,0,0,0,.505-1.207c.015-.056.035-.146.063-.276s.049-.22.067-.285l1.641.455c-.019.072-.044.179-.079.329s-.057.253-.077.326a4.954,4.954,0,0,1-1.844,3.023,4.035,4.035,0,0,1-3.286.183,4.845,4.845,0,0,1-2.956-1.809,3.909,3.909,0,0,1-.2-3.2l.377-1.355a3.353,3.353,0,0,0,.141-2.183,2.657,2.657,0,0,0-1.662-.937l-1.452-.4-1.006,3.623q-.264.948-.084,1.238a1.8,1.8,0,0,0,1.019.526l.921.256-.636,2.293-9.749-2.707.636-2.292.812.226a1.843,1.843,0,0,0,1.156.079q.3-.157.566-1.1m-6.047-20.808,5.16-1.014a5.677,5.677,0,0,1,1.462-.151,1.784,1.784,0,0,1,.91.327,1.335,1.335,0,0,1,.577.909,1.377,1.377,0,0,1-.26,1.047,1.243,1.243,0,0,1-.736.493,3.26,3.26,0,0,1-1.24,0l-4.667-.75Zm-11.588,4.158a8.432,8.432,0,0,1,5.914-3.82,10.219,10.219,0,0,1,7.209,2.235,10.158,10.158,0,0,1,4.431,6.079,8.439,8.439,0,0,1-1.7,6.829,8.379,8.379,0,0,1-5.9,3.807,10.272,10.272,0,0,1-7.216-2.25,10.138,10.138,0,0,1-4.42-6.071,8.41,8.41,0,0,1,1.682-6.81m11.646.5a2.6,2.6,0,0,0-2.889-.221,11.061,11.061,0,0,0-3.429,3.464,11.414,11.414,0,0,0-2.21,4.423,2.579,2.579,0,0,0,1.127,2.653,2.6,2.6,0,0,0,2.89.226,11.129,11.129,0,0,0,3.428-3.471,11.4,11.4,0,0,0,2.2-4.412,2.575,2.575,0,0,0-1.12-2.662m-12.764.851a6.9,6.9,0,0,1-5.338,1.749,8.364,8.364,0,0,1-5.118-3.2q-2.827-3.316-2.594-6.593a8.831,8.831,0,0,1,3.491-6.056,8.774,8.774,0,0,1,6.508-2.359,8.76,8.76,0,0,1,6.065,3.36,10.716,10.716,0,0,1,1.428,2.117,8.829,8.829,0,0,1,.784,2.283l.982-.277,1.769,2.073-5.263,4.489-1.95-2.286a7.778,7.778,0,0,0,1.8-3.3,3,3,0,0,0-.747-2.563,2.725,2.725,0,0,0-2.814-.989,10.682,10.682,0,0,0-4.185,2.51,10.741,10.741,0,0,0-3.211,3.83,2.848,2.848,0,0,0,.6,3.032,3.555,3.555,0,0,0,2.735,1.327,5.279,5.279,0,0,0,3.3-1.2Z" transform="translate(1318.725 -1188.832)"/><path class="c" d="M-1221.441,1259.082c11.67,0,21.131.332,21.131.741s-9.461.742-21.13.742-21.13-.332-21.13-.742,9.459-.741,21.129-.741" transform="translate(1321.529 -1193.765)"/><path class="c" d="M-1219.683,1263.545c14.536,0,26.32.333,26.32.741s-11.784.741-26.32.741-26.32-.332-26.32-.741,11.784-.741,26.32-.741" transform="translate(1321.255 -1193.408)"/><path class="c" d="M-1219.2,1267.321c16.889,0,30.583.332,30.583.741s-13.694.742-30.584.742-30.583-.333-30.583-.742,13.694-.741,30.584-.741" transform="translate(1320.954 -1193.106)"/><path class="c" d="M-1219.554,1271.784c19.347,0,35.031.333,35.031.741s-15.684.742-35.031.741-35.031-.332-35.031-.741,15.683-.741,35.031-.741" transform="translate(1320.57 -1192.75)"/><path class="c" d="M-1219.466,1277.276c21.293,0,38.554.332,38.554.742s-17.261.741-38.554.741-38.553-.333-38.553-.741,17.26-.742,38.553-.742" transform="translate(1320.296 -1192.311)"/><path class="c" d="M-1218.827,1283.112c22.214,0,40.222.331,40.222.742s-18.008.74-40.222.74-40.221-.332-40.221-.74,18.008-.742,40.221-.742" transform="translate(1320.213 -1191.845)"/><path class="c" d="M-1219.191,1288.6c23.34,0,42.261.333,42.26.742s-18.919.741-42.26.741-42.26-.332-42.26-.741,18.921-.742,42.26-.742" transform="translate(1320.021 -1191.406)"/><path class="c" d="M-1221,1324.926c11.67,0,21.13-.332,21.13-.741s-9.46-.742-21.13-.742-21.13.332-21.13.742,9.46.741,21.13.741" transform="translate(1321.564 -1188.624)"/><path class="c" d="M-1219.245,1320.463c14.536,0,26.32-.332,26.32-.741s-11.784-.742-26.32-.742-26.32.332-26.32.742,11.784.741,26.32.741" transform="translate(1321.29 -1188.98)"/><path class="c" d="M-1218.758,1316.686c16.89,0,30.583-.331,30.583-.74s-13.693-.742-30.583-.742-30.583.333-30.583.742,13.693.74,30.583.74" transform="translate(1320.989 -1189.282)"/><path class="c" d="M-1219.116,1312.223c19.347,0,35.032-.331,35.032-.74s-15.684-.742-35.032-.742-35.031.332-35.031.742,15.683.74,35.031.74" transform="translate(1320.605 -1189.638)"/><path class="c" d="M-1219.026,1306.732c21.292,0,38.553-.332,38.553-.742s-17.261-.741-38.553-.741-38.554.332-38.554.741,17.262.742,38.554.742" transform="translate(1320.33 -1190.077)"/><path class="c" d="M-1218.388,1300.9c22.213,0,40.221-.332,40.221-.741s-18.008-.742-40.221-.742-40.222.334-40.222.742,18.008.741,40.222.741" transform="translate(1320.248 -1190.543)"/><path class="c" d="M-1218.752,1295.4c23.339,0,42.26-.331,42.26-.742s-18.921-.741-42.26-.741-42.26.331-42.26.741,18.92.742,42.26.742" transform="translate(1320.056 -1190.982)"/><path class="c" d="M-1222.939,1254.694c6.02,0,10.9.332,10.9.741s-4.881.741-10.9.741-10.9-.332-10.9-.741,4.88-.741,10.9-.741" transform="translate(1322.227 -1194.115)"/><path class="c" d="M-1222.939,1327.842c6.02,0,10.9.333,10.9.741s-4.881.741-10.9.741-10.9-.331-10.9-.741,4.88-.741,10.9-.741" transform="translate(1322.227 -1188.272)"/><path class="e" d="M-1231.983,1261.929l.109.882a1.472,1.472,0,0,1-.306,1.093l-1.457,1.849a1.457,1.457,0,0,1-.559.435l-1.093.486a1.448,1.448,0,0,0-.591.478l-.825,1.125a1.482,1.482,0,0,0-.206.4l-3.057,9.019a1.467,1.467,0,0,0-.077.516l.245,8.462a1.477,1.477,0,0,0,.806,1.273l3.472,1.763a1.471,1.471,0,0,1,.757.938l.314,1.181a1.476,1.476,0,0,0,1.426,1.1,1.474,1.474,0,0,1,1.466,1.634l-.776,7.213a1.478,1.478,0,0,1-.239.661l-.333.5a1.481,1.481,0,0,0-.247.864l.578,19a1.476,1.476,0,0,0,1.485,1.432l13.712-.1a1.475,1.475,0,0,0,1.464-1.443l.1-4.494a1.475,1.475,0,0,1,1.4-1.44l2.764-.135a1.473,1.473,0,0,0,1.156-.655l10.447-15.659a1.476,1.476,0,0,0-.225-1.9l-1.088-1.005a1.485,1.485,0,0,1-.471-.987l-.19-2.915a1.472,1.472,0,0,0-.439-.958l-1.214-1.189a1.48,1.48,0,0,1-.44-.97l-.285-5.026.992-.635,1.783-9.679a1.478,1.478,0,0,0-.125-.916l-1.748-3.576a1.475,1.475,0,0,0-1.262-.826l-1.545-.067a1.477,1.477,0,0,1-1.4-1.316l-.186-1.744a1.484,1.484,0,0,0-.206-.609l-1.392-2.291a1.475,1.475,0,0,0-.991-.683l-6.177-1.15-.2-.753-4.407.239a1.457,1.457,0,0,1-.775-.173l-2.867-1.535a1.471,1.471,0,0,0-.939-.155l-4.914.816a1.476,1.476,0,0,0-1.222,1.636" transform="translate(1321.731 -1193.735)"/></g><path class="f" d="M-1305.889,1347.027l2.427-1.543.433.681-6.641,4.22-1.306-2.055a2.238,2.238,0,0,1,.556-3.251l.461-.294a2.245,2.245,0,0,1,3.2.868Zm-3.631,2.307,3.046-1.936-.841-1.324a1.53,1.53,0,0,0-2.262-.58l-.359.227a1.527,1.527,0,0,0-.425,2.289Z" transform="translate(1328.434 -1174.528)"/><path class="f" d="M-1314.2,1343a2.232,2.232,0,0,1,.74-3.2l.411-.227a2.1,2.1,0,0,1,2.669.483l1.9-2.965.438.793-1.854,2.842.781,1.412,2.623-1.448.39.706-6.883,3.8Zm1.428,1.155,3.055-1.688-.794-1.438a1.521,1.521,0,0,0-2.206-.726l-.3.165a1.513,1.513,0,0,0-.549,2.247Z" transform="translate(1328.183 -1175.114)"/><path class="f" d="M-1317.224,1337.284a2.539,2.539,0,0,1,1.1-3.612l2.733-1.289a2.539,2.539,0,0,1,3.49,1.444,2.539,2.539,0,0,1-1.1,3.616l-2.732,1.291A2.54,2.54,0,0,1-1317.224,1337.284Zm5.822-.544a1.8,1.8,0,0,0,.857-2.609,1.8,1.8,0,0,0-2.558-1l-2.617,1.235a1.8,1.8,0,0,0-.857,2.608,1.8,1.8,0,0,0,2.558,1Z" transform="translate(1327.945 -1175.511)"/><path class="f" d="M-1313.663,1326.036a5.437,5.437,0,0,1,1.234,1.9,2.572,2.572,0,0,1-1.371,3.556l-2.657,1.054a2.649,2.649,0,0,1-3.556-1.763,5.083,5.083,0,0,1-.368-2.029l.7-.079a5.414,5.414,0,0,0,.34,1.771,1.933,1.933,0,0,0,2.645,1.326l2.543-1.009a1.827,1.827,0,0,0,.989-2.643,4.647,4.647,0,0,0-.676-1.182l-2.684,1.064-.285-.718Z" transform="translate(1327.719 -1175.997)"/><path class="f" d="M-1321.987,1324.993a2.231,2.231,0,0,1,1.323-3.007l.447-.147a2.093,2.093,0,0,1,2.532.972l2.418-2.56.282.86-2.35,2.447.5,1.535,2.848-.935.251.767-7.472,2.452Zm1.188,1.4,3.316-1.089-.513-1.562a1.52,1.52,0,0,0-2.031-1.124l-.326.107a1.515,1.515,0,0,0-.959,2.106Z" transform="translate(1327.578 -1176.459)"/><path class="f" d="M-1316.755,1314.688l-1.821,1.172.834,3.194,2.161.133.216.826-8.273-.538-.287-1.1,6.956-4.51Zm-1.723,4.329-.721-2.767-3.894,2.5Z" transform="translate(1327.436 -1176.969)"/><path class="f" d="M-1324.6,1308.2l5.858,1.49.1.56-4.958,3.454,6.391-1.164.141.778-7.739,1.409-.174-.954,5.213-3.608-6.151-1.543-.174-.955,7.739-1.409.141.776Z" transform="translate(1327.264 -1177.577)"/><path class="f" d="M-1319.022,1300.221l-1.975.887.345,3.282,2.117.455.09.849-8.1-1.769-.12-1.133,7.551-3.419Zm-2.351,4.023-.3-2.842-4.223,1.888Z" transform="translate(1327.218 -1178.127)"/><path class="f" d="M-1327.133,1296.469l-.043-2.41a2.565,2.565,0,0,1,2.412-2.827l2.939-.053c1.649-.029,2.486,1.228,2.513,2.739l.043,2.41Zm.649-2.359.028,1.539,6.481-.117-.027-1.54c-.024-1.278-.717-2.033-1.873-2.011l-2.811.051A1.831,1.831,0,0,0-1326.484,1294.11Z" transform="translate(1327.176 -1178.781)"/><path class="f" d="M-1327.17,1289.618l.183-4.364.719.03-.148,3.552,2.809.116.144-3.435.719.03-.144,3.435,2.89.121.154-3.678.719.029-.188,4.492Z" transform="translate(1327.177 -1179.254)"/><path class="f" d="M-1319.683,1283.7l.327-3.434.723.068-.4,4.238-7.828-.745.076-.8Z" transform="translate(1327.201 -1179.653)"/><path class="f" d="M-1317.724,1272.682a5.435,5.435,0,0,1,.056,2.263,2.572,2.572,0,0,1-3.031,2.309l-2.815-.5a2.649,2.649,0,0,1-2.1-3.367,5.058,5.058,0,0,1,.751-1.92l.637.3a5.471,5.471,0,0,0-.639,1.686,1.934,1.934,0,0,0,1.556,2.516l2.695.474a1.826,1.826,0,0,0,2.228-1.73,4.648,4.648,0,0,0,.045-1.361l-2.844-.5.134-.761Z" transform="translate(1327.296 -1180.355)"/><path class="f" d="M-1324.354,1267.423a2.538,2.538,0,0,1,3.124-2.121l2.937.708a2.538,2.538,0,0,1,1.813,3.313,2.541,2.541,0,0,1-3.126,2.127l-2.936-.71A2.54,2.54,0,0,1-1324.354,1267.423Zm4.875,3.228a1.8,1.8,0,0,0,2.3-1.495,1.8,1.8,0,0,0-1.367-2.381l-2.814-.678a1.8,1.8,0,0,0-2.3,1.493,1.8,1.8,0,0,0,1.368,2.381Z" transform="translate(1327.393 -1180.855)"/><path class="f" d="M-1315.588,1265.48l-7.516-2.33.74-2.381a1.913,1.913,0,0,1,2.6-1.506,1.746,1.746,0,0,1,1.312,1.653,1.986,1.986,0,0,1,2.246-.886l.044.014c1.338.415,1.758,1.627,1.329,3.009Zm-4.39-5.444a1.277,1.277,0,0,0-1.749,1.01l-.476,1.536,2.648.822.49-1.583A1.275,1.275,0,0,0-1319.978,1260.037Zm1.521,2.041-.471,1.521,2.919.906.486-1.566a1.531,1.531,0,0,0-.958-2.152C-1317.425,1260.493-1318.141,1261.056-1318.458,1262.077Z" transform="translate(1327.502 -1181.34)"/><path class="f" d="M-1313.492,1258.852l-.272.76-7.409-2.655.272-.76Z" transform="translate(1327.656 -1181.575)"/><path class="f" d="M-1320.18,1254.492l1.643-4.049.667.271-1.337,3.295,2.606,1.057,1.294-3.188.666.271-1.292,3.187,2.68,1.089,1.385-3.413.667.271-1.691,4.166Z" transform="translate(1327.735 -1182.035)"/><path class="f" d="M-1316.885,1246.886a2.232,2.232,0,0,1,3.032-1.268l.424.2a2.094,2.094,0,0,1,1.164,2.449l3.516-.189-.389.819-3.389.152-.693,1.459,2.707,1.285-.346.729-7.1-3.372Zm-.1,1.834,3.152,1.5.705-1.485a1.52,1.52,0,0,0-.7-2.215l-.309-.147a1.514,1.514,0,0,0-2.147.865Z" transform="translate(1327.913 -1182.438)"/><path class="f" d="M-1307.1,1242.332l-5.646-3.167.4-.705,6.862,3.851-.423.755-7.536.215,5.639,3.165-.4.7-6.86-3.849.423-.755Z" transform="translate(1328.143 -1182.992)"/><path class="f" d="M-1310.129,1234.611a2.537,2.537,0,0,1,3.655-.944l2.526,1.656a2.537,2.537,0,0,1,.591,3.729,2.538,2.538,0,0,1-3.657.949l-2.526-1.657A2.539,2.539,0,0,1-1310.129,1234.611Zm3.5,4.68a1.8,1.8,0,0,0,2.672-.632,1.8,1.8,0,0,0-.486-2.7l-2.419-1.586a1.8,1.8,0,0,0-2.672.631,1.8,1.8,0,0,0,.487,2.7Z" transform="translate(1328.494 -1183.41)"/><path class="f" d="M-1305.883,1228.816l1.5-1.885a2.564,2.564,0,0,1,3.659-.646l2.3,1.829c1.291,1.026,1.136,2.527.2,3.708l-1.5,1.886Zm2-1.406-.957,1.205,5.072,4.032.958-1.205a1.787,1.787,0,0,0-.165-2.742l-2.2-1.748A1.832,1.832,0,0,0-1303.883,1227.41Z" transform="translate(1328.877 -1184.006)"/><path class="f" d="M-1301.585,1223.517l2.949-3.225.531.487-2.4,2.624,2.076,1.9,2.322-2.539.531.486-2.322,2.54,2.136,1.953,2.487-2.718.531.486-3.035,3.32Z" transform="translate(1329.221 -1184.444)"/><path class="f" d="M-1287.454,1219.866a4.914,4.914,0,0,1-1.162,1.611,2.572,2.572,0,0,1-3.714.023l-2.022-2.124a2.564,2.564,0,0,1,.163-3.771,4.522,4.522,0,0,1,1.556-.976l.367.63a4.666,4.666,0,0,0-1.4.885,1.828,1.828,0,0,0-.055,2.723l1.938,2.035a1.815,1.815,0,0,0,2.719-.031,5.32,5.32,0,0,0,1.045-1.4Z" transform="translate(1329.739 -1184.896)"/><path class="f" d="M-1291.134,1211.693l.231-2.408.771.093-.435,2.392Zm1.257.2a2.538,2.538,0,0,1,3.773.134l1.95,2.307a2.538,2.538,0,0,1-.495,3.743,2.539,2.539,0,0,1-3.776-.13l-1.951-2.307A2.54,2.54,0,0,1-1289.877,1211.893Zm2.027,5.482a1.8,1.8,0,0,0,2.741.155,1.8,1.8,0,0,0,.3-2.728l-1.868-2.208a1.8,1.8,0,0,0-2.74-.156,1.8,1.8,0,0,0-.3,2.729Z" transform="translate(1330.055 -1185.323)"/><path class="f" d="M-1284.341,1207.547a2.232,2.232,0,0,1,3.273.305l.281.378a2.1,2.1,0,0,1-.123,2.711l3.194,1.487-.728.54-3.064-1.459-1.3.962,1.787,2.408-.649.481-4.689-6.318Zm-.955,1.57,2.081,2.8,1.32-.981a1.52,1.52,0,0,0,.425-2.284l-.2-.275a1.516,1.516,0,0,0-2.3-.245Z" transform="translate(1330.437 -1185.507)"/><path class="f" d="M-1281.012,1205.16l2.026-1.307a2.565,2.565,0,0,1,3.672.563l1.593,2.47c.893,1.387.265,2.759-1,3.578l-2.026,1.305Zm2.346-.691-1.294.835,3.512,5.447,1.294-.833a1.788,1.788,0,0,0,.724-2.65l-1.524-2.363A1.831,1.831,0,0,0-1278.665,1204.469Z" transform="translate(1330.864 -1185.798)"/><path class="f" d="M-1273.151,1200.2a2.538,2.538,0,0,1,3.676.862l1.468,2.641a2.537,2.537,0,0,1-1.211,3.576,2.538,2.538,0,0,1-3.68-.859l-1.468-2.641A2.54,2.54,0,0,1-1273.151,1200.2Zm.928,5.772a1.8,1.8,0,0,0,2.659.683,1.8,1.8,0,0,0,.825-2.618l-1.4-2.529a1.8,1.8,0,0,0-2.659-.684,1.8,1.8,0,0,0-.825,2.619Z" transform="translate(1331.367 -1186.083)"/><path class="f" d="M-1265.8,1205.318l-3.376-7.108,2.252-1.07a1.914,1.914,0,0,1,2.867.89,1.748,1.748,0,0,1-.328,2.086,1.983,1.983,0,0,1,2.173,1.053l.02.042c.6,1.265-.007,2.4-1.315,3.017Zm1.032-6.918a1.277,1.277,0,0,0-1.928-.6l-1.453.69,1.188,2.5,1.5-.71A1.277,1.277,0,0,0-1264.768,1198.4Zm-.472,2.5-1.439.682,1.312,2.762,1.481-.7a1.53,1.53,0,0,0,.935-2.162C-1263.375,1200.589-1264.274,1200.443-1265.24,1200.9Z" transform="translate(1331.809 -1186.317)"/><path class="f" d="M-1256.27,1201.091l-1.389-1.657-3.062,1.227.139,2.158-.793.318-.5-8.268,1.057-.423,5.344,6.328Zm-4.507-1.165,2.651-1.062-2.965-3.546Z" transform="translate(1332.392 -1186.508)"/><path class="f" d="M-1252.589,1196.833l.837,2.753-.773.234-2.288-7.529,2.331-.707a2.238,2.238,0,0,1,2.985,1.407l.159.523a2.246,2.246,0,0,1-1.692,2.847Zm-1.25-4.116,1.049,3.453,1.5-.456a1.531,1.531,0,0,0,1.165-2.025l-.123-.405a1.525,1.525,0,0,0-2.091-1.024Z" transform="translate(1332.957 -1186.747)"/><path class="f" d="M-1242.758,1197.143l-1.138-1.841-3.207.773-.173,2.158-.83.2.692-8.258,1.107-.267,4.379,7.036Zm-4.3-1.8,2.779-.67-2.426-3.938Z" transform="translate(1333.492 -1186.87)"/><path class="f" d="M-1240.073,1188.652a2.231,2.231,0,0,1,2.788,1.739l.081.463a2.091,2.091,0,0,1-1.323,2.366l2.189,2.757-.892.158-2.085-2.675-1.59.28.518,2.95-.795.14-1.362-7.742Zm-1.555.975.6,3.437,1.618-.285a1.521,1.521,0,0,0,1.4-1.85l-.061-.338a1.514,1.514,0,0,0-1.947-1.248Z" transform="translate(1333.937 -1186.974)"/><path class="f" d="M-1230.618,1195.314l-.9-1.97-3.281.366-.442,2.12-.849.095,1.72-8.11,1.132-.126,3.466,7.53Zm-4.037-2.327,2.841-.317-1.915-4.213Z" transform="translate(1334.453 -1187.048)"/><path class="f" d="M-1222.191,1194.934l-.726-2.039-3.3.084-.621,2.073-.853.022,2.4-7.929,1.138-.028,2.809,7.793Zm-3.822-2.662,2.857-.074-1.547-4.358Z" transform="translate(1335.123 -1187.093)"/><path class="f" d="M-1219.851,1194.26l3.45.112-.024.726-4.258-.138.256-7.865.807.026Z" transform="translate(1335.683 -1187.095)"/><path class="f" d="M-1214.986,1187.328l4.352.374-.063.717-3.542-.3-.241,2.8,3.426.295-.062.717-3.425-.294-.249,2.882,3.67.315-.062.717-4.479-.385Z" transform="translate(1336.084 -1187.076)"/><path class="f" d="M-1205.454,1194.961l.953-6.4.8.119-1.157,7.782-.856-.128-2.882-6.967-.951,6.4-.8-.119,1.158-7.781.856.127Z" transform="translate(1336.508 -1187.034)"/><path class="f" d="M-1200.6,1190.076l-2.307-.493.151-.7,5.4,1.154-.151.705-2.3-.491-1.495,6.986-.795-.17Z" transform="translate(1337.103 -1186.952)"/><path class="f" d="M-1194.126,1198.98l-.109-2.162-3.185-.867-1.19,1.808-.825-.225,4.584-6.9,1.1.3.451,8.274Zm-2.9-3.649,2.758.752-.229-4.621Z" transform="translate(1337.38 -1186.813)"/><path class="f" d="M-1187.774,1192.839a2.231,2.231,0,0,1,1.606,2.867l-.152.445a2.1,2.1,0,0,1-2.3,1.437l.59,3.472-.859-.293-.537-3.35-1.53-.521-.967,2.837-.764-.26,2.538-7.445Zm-1.835.1-1.126,3.3,1.555.531a1.522,1.522,0,0,0,2.122-.946l.11-.325a1.514,1.514,0,0,0-1.1-2.033Z" transform="translate(1337.919 -1186.701)"/><path class="f" d="M-1181.615,1195.153l4,1.753-.289.66-3.257-1.426-1.128,2.576,3.15,1.38-.288.66-3.15-1.38-1.161,2.65,3.374,1.477-.29.66-4.119-1.8Z" transform="translate(1338.552 -1186.451)"/><path class="f" d="M-1178.846,1204.249l3.084,1.551-.326.649-3.8-1.914,3.532-7.029.722.363Z" transform="translate(1338.941 -1186.263)"/><path class="f" d="M-1169.564,1209.953a4.928,4.928,0,0,1-1.862-.7,2.575,2.575,0,0,1-1-3.58l1.517-2.512a2.566,2.566,0,0,1,3.683-.838,4.515,4.515,0,0,1,1.353,1.245l-.511.52a4.655,4.655,0,0,0-1.224-1.12,1.829,1.829,0,0,0-2.642.665l-1.455,2.408a1.817,1.817,0,0,0,.749,2.618,5.318,5.318,0,0,0,1.63.638Z" transform="translate(1339.508 -1185.914)"/><path class="f" d="M-1162.372,1205.476a2.537,2.537,0,0,1,.86,3.676l-1.714,2.488a2.539,2.539,0,0,1-3.742.505,2.541,2.541,0,0,1-.866-3.68l1.715-2.488A2.539,2.539,0,0,1-1162.372,1205.476Zm-4.759,3.4a1.8,1.8,0,0,0,.569,2.686,1.8,1.8,0,0,0,2.712-.424l1.642-2.382a1.8,1.8,0,0,0-.569-2.686,1.8,1.8,0,0,0-2.713.424Z" transform="translate(1339.867 -1185.674)"/><path class="f" d="M-1159.082,1216.192l4.02-5.068.633.5-4.886,6.16-.678-.536.981-7.471-4.016,5.064-.633-.5,4.886-6.16.678.538Z" transform="translate(1340.238 -1185.41)"/><path class="f" d="M-1157.1,1219.849a5.94,5.94,0,0,1-1.353-1.749l.6-.438a5.981,5.981,0,0,0,1.2,1.58c.832.76,1.567,1.024,2.273.251.561-.613.538-1.146-.005-2.06l-.578-.978a1.955,1.955,0,0,1,.391-2.478,2.143,2.143,0,0,1,3.147.082,5.638,5.638,0,0,1,1.239,1.574l-.585.449a5.355,5.355,0,0,0-1.117-1.431c-.733-.67-1.507-.772-2.1-.13a1.279,1.279,0,0,0-.163,1.781l.579.978a2.043,2.043,0,0,1-.206,2.748C-1154.719,1221.054-1155.892,1220.959-1157.1,1219.849Z" transform="translate(1340.653 -1185)"/><path class="f" d="M-1145.153,1220.432l-3.948,3.9a2.445,2.445,0,0,1-3.628-.208,2.443,2.443,0,0,1-.162-3.629l3.949-3.9.568.575-3.942,3.891a1.717,1.717,0,0,0,.1,2.561,1.711,1.711,0,0,0,2.555.122l3.941-3.891Z" transform="translate(1341.039 -1184.739)"/><path class="f" d="M-1140.753,1227.511l-5.816,1.633-.368-.434,2.57-5.466-4.954,4.2-.511-.6,6-5.084.627.74-2.714,5.725,6.1-1.733.627.74-6,5.084-.51-.6Z" transform="translate(1341.342 -1184.327)"/><path class="f" d="M-1136.621,1230.546a2.54,2.54,0,0,1-.415,3.755l-2.447,1.773a2.536,2.536,0,0,1-3.7-.772,2.539,2.539,0,0,1,.411-3.758l2.446-1.774A2.541,2.541,0,0,1-1136.621,1230.546Zm-5.622,1.614a1.8,1.8,0,0,0-.359,2.722,1.8,1.8,0,0,0,2.7.5l2.343-1.7a1.8,1.8,0,0,0,.359-2.722,1.8,1.8,0,0,0-2.7-.505Z" transform="translate(1341.823 -1183.727)"/><path class="f" d="M-1132.645,1236.573l1.229,2.072a2.564,2.564,0,0,1-.7,3.649l-2.527,1.5c-1.418.841-2.767.162-3.537-1.137l-1.229-2.072Zm.6,2.37-.785-1.324-5.574,3.307.785,1.323a1.786,1.786,0,0,0,2.621.822l2.417-1.434A1.83,1.83,0,0,0-1132.042,1238.943Z" transform="translate(1342.175 -1183.143)"/><path class="f" d="M-1129.235,1242.448l2,3.886-.641.33-1.626-3.163-2.5,1.287,1.573,3.059-.64.329-1.575-3.059-2.574,1.323,1.685,3.277-.64.33-2.057-4Z" transform="translate(1342.429 -1182.674)"/><path class="f" d="M-1131.812,1253.558l1.327,3.186-.671.28-1.637-3.932,7.261-3.024.311.745Z" transform="translate(1342.703 -1182.065)"/><path class="f" d="M-1129.294,1262.08l1.718-1.317-1.091-3.112-2.164.044-.282-.805,8.283-.139.376,1.073-6.557,5.061Zm1.363-4.453.945,2.7,3.674-2.806Z" transform="translate(1342.837 -1181.531)"/><path class="f" d="M-1125.224,1265.956l-2.785.713-.2-.781,7.616-1.95.6,2.356a2.236,2.236,0,0,1-1.537,2.917l-.529.135a2.244,2.244,0,0,1-2.767-1.814Zm4.162-1.066-3.492.9.389,1.518a1.529,1.529,0,0,0,1.969,1.252l.411-.1a1.524,1.524,0,0,0,1.115-2.041Z" transform="translate(1343.069 -1180.957)"/><path class="f" d="M-1118.613,1272.487a2.232,2.232,0,0,1-1.692,2.818l-.462.09a2.1,2.1,0,0,1-2.39-1.283l-2.721,2.235-.172-.89,2.64-2.132-.307-1.585-2.942.569-.155-.793,7.722-1.493Zm-1-1.54-3.428.662.311,1.615a1.521,1.521,0,0,0,1.875,1.371l.337-.065a1.516,1.516,0,0,0,1.217-1.969Z" transform="translate(1343.181 -1180.471)"/><path class="f" d="M-1117.505,1278.81a2.54,2.54,0,0,1-2.165,3.1l-3,.383a2.539,2.539,0,0,1-2.874-2.451,2.54,2.54,0,0,1,2.164-3.1l3-.384A2.542,2.542,0,0,1-1117.505,1278.81Zm-5.707-1.28a1.8,1.8,0,0,0-1.622,2.217,1.8,1.8,0,0,0,2.128,1.737l2.871-.367a1.8,1.8,0,0,0,1.621-2.217,1.8,1.8,0,0,0-2.127-1.737Z" transform="translate(1343.28 -1179.967)"/><path class="f" d="M-1117.118,1283.2l.15,2.407a2.567,2.567,0,0,1-2.287,2.933l-2.935.183c-1.648.1-2.54-1.117-2.633-2.625l-.15-2.408Zm-.545,2.387-.1-1.538-6.475.4.1,1.537c.08,1.276.807,2,1.961,1.927l2.808-.175A1.832,1.832,0,0,0-1117.662,1285.59Z" transform="translate(1343.328 -1179.418)"/><path class="f" d="M-1116.781,1295.276l-5.546-.019a2.442,2.442,0,0,1-2.423-2.7,2.44,2.44,0,0,1,2.443-2.685l5.546.018,0,.807-5.534-.018a1.716,1.716,0,0,0-1.737,1.881,1.711,1.711,0,0,0,1.725,1.888l5.533.018Z" transform="translate(1343.346 -1178.886)"/><path class="f" d="M-1124.735,1300.925a4.943,4.943,0,0,1-.242-1.973,2.574,2.574,0,0,1,2.713-2.542l2.93.184a2.567,2.567,0,0,1,2.445,2.881,4.515,4.515,0,0,1-.479,1.775l-.7-.213a4.67,4.67,0,0,0,.429-1.6,1.83,1.83,0,0,0-1.811-2.038l-2.809-.177a1.817,1.817,0,0,0-1.976,1.872,5.317,5.317,0,0,0,.187,1.742Z" transform="translate(1343.326 -1178.364)"/><path class="f" d="M-1125.337,1306.146a4.9,4.9,0,0,1-.136-1.981,2.572,2.572,0,0,1,2.842-2.393l2.915.341a2.565,2.565,0,0,1,2.287,3.005,4.527,4.527,0,0,1-.573,1.747l-.685-.25a4.675,4.675,0,0,0,.512-1.579,1.827,1.827,0,0,0-1.7-2.129l-2.792-.327a1.817,1.817,0,0,0-2.074,1.763,5.3,5.3,0,0,0,.094,1.749Z" transform="translate(1343.285 -1177.936)"/><path class="f" d="M-1125.905,1307.805l.127-.8,7.773,1.231-.126.8Z" transform="translate(1343.254 -1177.517)"/><path class="f" d="M-1118.825,1313.609a2.539,2.539,0,0,1-3.052,2.225l-2.959-.611a2.537,2.537,0,0,1-1.921-3.251,2.54,2.54,0,0,1,3.053-2.23l2.958.61A2.54,2.54,0,0,1-1118.825,1313.609Zm-4.98-3.062a1.8,1.8,0,0,0-2.252,1.57,1.8,1.8,0,0,0,1.447,2.334l2.833.584a1.8,1.8,0,0,0,2.252-1.57,1.8,1.8,0,0,0-1.446-2.333Zm6.094,2.444,1.305,2.038-.664.4-1.135-2.151Z" transform="translate(1343.179 -1177.304)"/><path class="f" d="M-1127.361,1320.785l6.237,1.739-.217.779-7.581-2.115.233-.834,7.273-2-6.232-1.739.217-.777,7.581,2.114-.232.835Z" transform="translate(1343.013 -1176.811)"/><path class="f" d="M-1129.8,1325.9l-1.216,3.23-.68-.256,1.5-3.986,7.362,2.772-.284.757Z" transform="translate(1342.791 -1176.089)"/><path class="f" d="M-1125.653,1334.919a2.537,2.537,0,0,1-3.452,1.525l-2.76-1.224a2.536,2.536,0,0,1-1.188-3.582,2.536,2.536,0,0,1,3.453-1.53l2.76,1.223A2.538,2.538,0,0,1-1125.653,1334.919Zm-4.216-4.047a1.8,1.8,0,0,0-2.532,1.056,1.8,1.8,0,0,0,.918,2.586l2.645,1.172a1.8,1.8,0,0,0,2.532-1.057,1.8,1.8,0,0,0-.918-2.586Z" transform="translate(1342.658 -1175.691)"/><path class="f" d="M-1136.367,1339.245a4.921,4.921,0,0,1,.571-1.9,2.573,2.573,0,0,1,3.505-1.238l2.608,1.348a2.565,2.565,0,0,1,1.08,3.62,4.507,4.507,0,0,1-1.153,1.433l-.552-.475a4.669,4.669,0,0,0,1.036-1.3,1.827,1.827,0,0,0-.838-2.592l-2.5-1.293a1.817,1.817,0,0,0-2.562.92,5.33,5.33,0,0,0-.53,1.67Z" transform="translate(1342.418 -1175.216)"/><path class="f" d="M-1139.387,1344.081l2.113.473,1.689-2.838-1.423-1.632.436-.734,5.429,6.268-.583.979-8.1-1.782Zm4.294-1.815-1.463,2.458,4.516,1.016Z" transform="translate(1342.142 -1174.933)"/><path class="f" d="M-1140.132,1346.408l-1.936,2.856-.6-.407,2.389-3.525,6.51,4.413-.453.669Z" transform="translate(1341.914 -1174.456)"/><g transform="translate(52.023 197.947)"><path class="f" d="M-1275.109,1385.025a5.933,5.933,0,0,1-2.246-.854,3.112,3.112,0,0,1-1.188-4.336l1.852-3.028a3.1,3.1,0,0,1,4.46-.988,5.465,5.465,0,0,1,1.629,1.515l-.622.625a5.634,5.634,0,0,0-1.473-1.363,2.213,2.213,0,0,0-3.2.786l-1.774,2.9a2.2,2.2,0,0,0,.887,3.17,6.474,6.474,0,0,0,1.967.784Z" transform="translate(1279.002 -1370.011)"/><path class="f" d="M-1266.735,1379.038a3.071,3.071,0,0,1,1.589,4.283l-1.682,3.245a3.069,3.069,0,0,1-4.415,1.171c-1.642-.85-2.513-2.513-1.594-4.285l1.68-3.245C-1270.237,1378.433-1268.376,1378.187-1266.735,1379.038Zm-5.2,4.795a2.173,2.173,0,0,0,1.089,3.137,2.178,2.178,0,0,0,3.192-.919l1.61-3.108a2.177,2.177,0,0,0-1.089-3.137,2.173,2.173,0,0,0-3.192.919Zm4.844-6.293,2.8-.852.252.906-2.876.616Z" transform="translate(1279.464 -1369.898)"/><path class="f" d="M-1259.842,1382.329a2.7,2.7,0,0,1,1.682,3.6l-.224.525a2.534,2.534,0,0,1-2.9,1.528l.4,4.242-1.009-.429-.351-4.092-1.8-.765-1.421,3.336-.9-.382,3.728-8.756Zm-2.223-.038-1.655,3.887,1.83.78a1.84,1.84,0,0,0,2.645-.953l.162-.382a1.832,1.832,0,0,0-1.151-2.552Z" transform="translate(1280.011 -1369.542)"/><path class="f" d="M-1255.945,1383.929l2.762.936a3.1,3.1,0,0,1,2.231,3.9l-1.141,3.367c-.641,1.891-2.414,2.329-4.145,1.742l-2.762-.936Zm2.42,1.7-1.764-.6-2.519,7.428,1.765.6a2.162,2.162,0,0,0,3.056-1.31l1.092-3.221A2.215,2.215,0,0,0-1253.525,1385.633Z" transform="translate(1280.599 -1369.319)"/><path class="f" d="M-1245.853,1386.853a3.069,3.069,0,0,1,2.522,3.809l-.9,3.543a3.071,3.071,0,0,1-4.034,2.146c-1.791-.453-3.019-1.875-2.529-3.81l.9-3.543C-1249.4,1387.064-1247.644,1386.4-1245.853,1386.853Zm-3.971,5.853a2.173,2.173,0,0,0,1.775,2.807,2.176,2.176,0,0,0,2.9-1.621l.86-3.394a2.176,2.176,0,0,0-1.775-2.807,2.173,2.173,0,0,0-2.9,1.622Z" transform="translate(1281.247 -1369.097)"/><path class="f" d="M-1243.028,1397.456l1.638-9.38,2.972.518c1.753.307,2.474,1.368,2.209,2.884a2.116,2.116,0,0,1-1.783,1.831,2.4,2.4,0,0,1,1.408,2.559l-.01.055c-.291,1.67-1.682,2.362-3.407,2.06Zm3.641-3.969-1.9-.331-.636,3.644,1.952.341a1.852,1.852,0,0,0,2.436-1.48C-1237.326,1394.482-1238.111,1393.708-1239.387,1393.487Zm2.216-2.14c.182-1.047-.3-1.737-1.482-1.944l-1.918-.335-.578,3.3,1.974.344A1.544,1.544,0,0,0-1237.171,1391.347Z" transform="translate(1281.875 -1368.988)"/><path class="f" d="M-1229.734,1399.235l-.566-2.557-3.974-.4-1.058,2.4-1.028-.1,4.083-9.162,1.371.136,2.2,9.787Zm-4.19-3.773,3.443.342-1.2-5.469Z" transform="translate(1282.408 -1368.881)"/><path class="f" d="M-1224.774,1395.145l3.99.021,0,.8-3.99-.022Z" transform="translate(1283.333 -1368.423)"/><path class="f" d="M-1209.99,1398.819l-1.031-2.408-3.977.35-.6,2.551-1.029.092,2.31-9.76,1.373-.121,3.978,9.206Zm-4.817-2.929,3.446-.3-2.2-5.149Z" transform="translate(1283.984 -1368.873)"/><path class="f" d="M-1206.067,1388.624a2.7,2.7,0,0,1,3.35,2.145l.092.562a2.535,2.535,0,0,1-1.635,2.846l2.61,3.368-1.082.177-2.487-3.267-1.929.315.586,3.58-.964.158-1.538-9.393Zm-1.9,1.159.683,4.169,1.963-.322a1.84,1.84,0,0,0,1.723-2.22l-.067-.408a1.833,1.833,0,0,0-2.339-1.541Z" transform="translate(1284.588 -1368.948)"/><path class="f" d="M-1194.46,1395.53a6.593,6.593,0,0,1-2.5,1.115,3.112,3.112,0,0,1-3.99-2.312l-.756-3.375c-.454-2.023.821-3.476,2.782-3.916a6.121,6.121,0,0,1,2.495-.055l-.04.852a6.589,6.589,0,0,0-2.182.071c-1.611.361-2.412,1.448-2.085,2.909l.724,3.231c.328,1.46,1.462,2.021,2.971,1.682a5.6,5.6,0,0,0,1.541-.583l-.763-3.409.913-.2Z" transform="translate(1285.168 -1369.083)"/><path class="f" d="M-1195.336,1386.292l5.051-1.562.258.833-4.111,1.271,1.005,3.25,3.976-1.23.257.833-3.976,1.23,1.035,3.344,4.258-1.316.258.833-5.2,1.608Z" transform="translate(1285.685 -1369.255)"/><path class="f" d="M-1181.091,1389.646l-2.856-7.286.909-.355,3.472,8.856-.975.382-7.216-5.571,2.854,7.28-.909.356-3.472-8.856.974-.382Z" transform="translate(1286.168 -1369.473)"/><path class="f" d="M-1179.547,1381.321l-2.571,1.239-.378-.786,6.022-2.9.379.784-2.565,1.237,3.751,7.789-.886.428Z" transform="translate(1286.71 -1369.723)"/><path class="f" d="M-1170.491,1386.211l-.859.467-4.541-8.363.857-.466Z" transform="translate(1287.238 -1369.805)"/><path class="f" d="M-1164.226,1380.736l-4.134-6.648.829-.515,5.023,8.08-.887.553-8.111-4.167,4.13,6.642-.829.515-5.024-8.08.889-.553Z" transform="translate(1287.45 -1370.146)"/><path class="f" d="M-1156.1,1376.783l-2.136-1.514-3.207,2.376.825,2.484-.829.614-3.127-9.523,1.106-.819,8.2,5.768Zm-5.635.019,2.778-2.058-4.56-3.242Z" transform="translate(1288.142 -1370.4)"/></g></g></g></svg>